<svg xmlns="http://www.w3.org/2000/svg" xmlns:xlink="http://www.w3.org/1999/xlink" viewBox="0 0 1920 1080">
  <defs>
    <style>
      .cls-1 {
        fill: none;
      }

      .cls-2 {
        clip-path: url(#clip-path);
      }

      .cls-3 {
        fill: #f1b4c3;
      }

      .cls-4 {
        fill: #f9c2d8;
      }

      .cls-5 {
        fill: #ffeeb8;
      }

      .cls-6 {
        fill: #f4dae3;
      }

      .cls-7 {
        fill: #fcf0f5;
      }

      .cls-8 {
        fill: #fff;
      }
    </style>
    <clipPath id="clip-path">
      <rect class="cls-1" width="1920" height="1080"/>
    </clipPath>
  </defs>
  <g id="Layer_2" data-name="Layer 2">
    <g id="Layer_1-2" data-name="Layer 1">
      <g class="cls-2">
        <rect class="cls-3" width="1920" height="1080"/>
        <g>
          <path class="cls-4" d="M41.0882,564.354a116.2744,116.2744,0,0,1,44.0675,8.6284c3.0356-285.951,430.2928-276.9017,421.4437,8.8134,72.1195-30.752,156.9653,29.1876,151.185,107.8571C705.347,648.726,871.5976,719.8453,810.3253,728.05c-95.0946,12.7347-875.7177,12.3909-875.7388,0C-100.194,653.8437-41.4794,562.4191,41.0882,564.354Z"/>
          <circle class="cls-5" cx="782.2963" cy="573.8511" r="354.1344"/>
          <path class="cls-4" d="M894.432,684.4046a46.5863,46.5863,0,0,1,16.618,3.0369c1.1449-100.6446,162.2655-97.4594,158.9283,3.1018a40.88,40.88,0,0,1,15.9169-2.8629c11.2933-39.1415,58.7156-63.318,97.6409-46.0549,1.9141-180.2913,271.2984-174.5858,265.719,5.5568,45.4712-19.3889,98.9662,18.4026,95.3217,68.0035,29.988-25.8043,134.8087,19.0363,96.1765,24.21-46.0324,6.1646-786.4766,6.3894-786.4834,2.6245C841.154,715.9018,863.2953,683.7236,894.432,684.4046Z"/>
        </g>
        <path class="cls-6" d="M1857.4685,816.629c-637.5553,317.6763-1289.7759,265.3373-1950.4383,0V644.2205a128.2191,128.2191,0,0,1,58.9472-.244c65.213-103.3243,249.6674-92.441,300.4537,18.3987,87.4971-45.1807,211.3056,1.2809,241.5886,90.981,37.7755-17.24,89.2122-11.8226,121.7761,12.39,34.0248-53.8168,123.2248-67.96,174.0584-27.4859,57.6068-94.5481,218.5523-108.23,293.1794-25.2288,50.0581-53.5148,155.454-41.3489,190.283,22.241,31.6874-18.6685,77.3948-21.0934,111.297-5.6992,25.94-128.8466,215.1783-179.5966,309.411-86.9784,39.0377-43.1379,119.5293-48.3709,164.5106-10.5618,36.7788-30.4322,99.694-34.261,140.4346-8.3069v191.257C1989.6235,819.4542,1879.5811,815.2165,1857.4685,816.629Z"/>
        <path class="cls-7" d="M1989.7858,1239.0208V635.7251c-85.3829-17.8713-181.2993,11.1362-240.9966,69.3765v.01c-60.6324-34.2136-148.6051-5.2727-176.36,57.7562a209.2053,209.2053,0,0,0-158.4089,92.7243c-45.2268-10.1522-97.0937,1.8471-132.2219,29.3523-67.0286-142.1088-296.562-149.0653-372.4833-11.8582-48.7791-31.9113-122.1075-32.8627-171.7693-2.1645-46.2318-68.0387-162.46-70.1247-211.1743-3.87A156.7567,156.7567,0,0,0,455.7857,837.79c4.4921-101.5176-118.543-166.7333-200.7048-114.1478-72.15-62.7539-196.4645-68.9777-274.8482-13.464v528.8431C671.47,1328.8661,1343.0765,1336.2415,1989.7858,1239.0208Z"/>
        <path class="cls-8" d="M-89.2128,1305.0223V782.091C-.7973,766.6,98.5256,791.7438,160.3431,842.226v.0082c62.7859-29.6559,153.8831-4.57,182.6234,50.0626,66.1531,4.2263,126.8375,33.54,164.0349,80.3726,46.8331-8.8,100.5422,1.6011,136.918,25.4423,69.4092-123.1786,307.0947-129.2084,385.7125-10.2785,50.5116-27.6605,126.4443-28.4852,177.87-1.8762,47.8737-58.9754,168.23-60.7835,218.6744-3.3541a180.5627,180.5627,0,0,1,73.0931-25.3643c-4.6517-87.9945,122.7532-144.5229,207.833-98.9422,74.7129-54.3945,203.4422-59.7893,284.61-11.67v458.3964C1275.9247,1382.8994,580.4652,1389.2923-89.2128,1305.0223Z"/>
        <g>
          <path class="cls-8" d="M1574.8305,421.7261c-16.1956-16.989-40.4132-32.3679-64.6317-25.5688,24.5287,3.4352,43.8029,21.1965,59.1269,39.4732,13.4,15.4329,12.5022-24.6482,71.0363-39.4733C1616.0937,392.5457,1590.4479,402.9134,1574.8305,421.7261Z"/>
          <path class="cls-8" d="M1443.0453,521.0164c-16.1956-16.989-40.4132-32.368-64.6318-25.5688,24.5287,3.4351,43.803,21.1965,59.1269,39.4732,13.4006,15.4328,12.5023-24.6482,71.0363-39.4733C1484.3084,491.8359,1458.6627,502.2037,1443.0453,521.0164Z"/>
          <path class="cls-8" d="M1688.9213,503.4951c-13.3547-14.0089-33.3242-26.69-53.2944-21.0836,20.226,2.8325,36.1192,17.4783,48.7551,32.5489,11.05,12.7257,10.3092-20.3245,58.5754-32.549C1722.9462,479.4333,1701.7991,487.9824,1688.9213,503.4951Z"/>
        </g>
        <g>
          <path class="cls-8" d="M1308.6524,315.87c-13.115-13.7575-32.7262-26.2113-52.3382-20.7054,19.8631,2.7818,35.4712,17.1648,47.88,31.9651,10.8517,12.4973,10.1242-19.96,57.5246-31.9651C1342.0669,292.24,1321.2992,300.6353,1308.6524,315.87Z"/>
          <path class="cls-8" d="M1201.934,396.2739c-13.1151-13.7575-32.7263-26.2112-52.3383-20.7053,19.8632,2.7817,35.4713,17.1647,47.88,31.965,10.8516,12.4974,10.1242-19.96,57.5245-31.9651C1235.3485,372.6439,1214.5808,381.04,1201.934,396.2739Z"/>
          <path class="cls-8" d="M1401.042,382.0854c-10.8145-11.3443-26.9855-21.6135-43.1573-17.0734,16.3789,2.2938,29.2491,14.1538,39.4815,26.3579,8.9481,10.3051,8.3483-16.4586,47.4338-26.3579C1428.5951,362.6,1411.47,369.5234,1401.042,382.0854Z"/>
        </g>
        <g>
          <path class="cls-8" d="M1715.1205,107.5292c-13.1151-13.7576-32.7262-26.2113-52.3382-20.7054,19.8631,2.7818,35.4712,17.1647,47.88,31.965,10.8517,12.4974,10.1242-19.96,57.5245-31.9651C1748.535,83.8991,1727.7673,92.2949,1715.1205,107.5292Z"/>
          <path class="cls-8" d="M1608.402,187.9335c-13.115-13.7575-32.7262-26.2113-52.3382-20.7054,19.8631,2.7818,35.4713,17.1648,47.88,31.9651,10.8517,12.4973,10.1243-19.96,57.5246-31.9651C1641.8166,164.3034,1621.0488,172.6992,1608.402,187.9335Z"/>
          <path class="cls-8" d="M1807.51,173.7449c-10.8145-11.3442-26.9856-21.6134-43.1573-17.0733,16.3788,2.2938,29.249,14.1538,39.4815,26.3579,8.9481,10.3051,8.3482-16.4587,47.4338-26.358C1835.0632,154.26,1817.9384,161.1829,1807.51,173.7449Z"/>
        </g>
      </g>
    </g>
  </g>
</svg>
