<?xml version="1.0" standalone="no"?>
<!DOCTYPE svg PUBLIC "-//W3C//DTD SVG 20010904//EN"
 "http://www.w3.org/TR/2001/REC-SVG-20010904/DTD/svg10.dtd">
<svg version="1.0" xmlns="http://www.w3.org/2000/svg"
 width="2329.000000pt" height="636.000000pt" viewBox="0 0 2329.000000 636.000000"
 preserveAspectRatio="xMidYMid meet">

<g transform="translate(0.000000,636.000000) scale(0.100000,-0.100000)"
fill="#000000" stroke="none">
<path d="M15460 6206 l-225 -72 -3 -2162 -2 -2162 235 0 235 0 0 1083 0 1082
103 66 c433 281 769 344 985 185 114 -85 197 -231 237 -419 13 -57 15 -228 15
-1033 l0 -964 241 0 240 0 -4 1048 c-4 1148 -2 1104 -64 1262 -84 209 -258
387 -453 461 -181 69 -473 72 -716 8 -176 -46 -352 -124 -497 -218 -43 -28
-80 -51 -82 -51 -3 0 -5 441 -5 980 0 539 -3 980 -7 979 -5 0 -109 -33 -233
-73z"/>
<path d="M2705 6104 c-22 -2 -96 -9 -165 -15 -69 -6 -188 -21 -265 -34 -435
-73 -633 -205 -702 -467 -13 -52 -17 -130 -20 -430 l-5 -368 707 0 706 0 -3
-92 -3 -93 -1055 -5 c-1187 -6 -1096 0 -1275 -85 -251 -118 -404 -316 -485
-628 -131 -504 -131 -909 1 -1432 80 -318 227 -533 432 -634 127 -62 192 -71
516 -71 l280 0 3 403 4 402 27 80 c107 306 334 521 642 607 79 22 91 22 915
28 l835 5 82 28 c198 67 376 245 442 443 40 120 42 172 39 949 l-3 750 -30 85
c-80 229 -276 406 -550 493 -65 21 -196 43 -370 62 -132 15 -613 28 -700 19z
m-427 -450 c161 -80 199 -293 75 -425 -78 -83 -181 -108 -286 -69 -118 44
-193 180 -167 306 19 91 96 179 179 204 58 18 145 11 199 -16z"/>
<path d="M13915 5485 l-230 -83 -3 -391 -2 -391 -160 0 -160 0 0 -150 0 -150
160 0 159 0 3 -987 c4 -982 4 -988 26 -1066 32 -116 77 -192 162 -278 126
-126 291 -195 528 -219 59 -7 146 -8 195 -5 l88 7 -3 122 -3 121 -75 7 c-282
27 -409 136 -440 378 -5 43 -10 471 -10 998 l0 922 265 0 265 0 0 150 0 150
-265 0 -265 0 -2 473 -3 474 -230 -82z"/>
<path d="M8652 4680 c-436 -42 -809 -190 -1033 -410 l-69 -69 2 -1848 3 -1848
230 -82 c127 -45 231 -83 233 -83 1 0 2 373 2 829 l0 829 98 -54 c462 -257
955 -267 1319 -27 135 88 303 291 388 468 226 470 215 1213 -26 1696 -145 292
-356 482 -617 558 -139 40 -358 57 -530 41z m250 -321 c92 -19 194 -75 262
-143 138 -138 220 -341 262 -651 24 -178 24 -565 0 -720 -63 -412 -220 -645
-491 -731 -239 -76 -525 -21 -837 162 l-78 46 0 913 0 914 33 24 c83 63 319
153 472 181 97 17 304 20 377 5z"/>
<path d="M10735 4612 c-121 -42 -226 -81 -233 -85 -15 -10 -17 -1878 -2 -2027
22 -214 106 -368 274 -509 101 -84 196 -140 306 -179 111 -39 201 -52 357 -52
288 0 578 56 856 166 61 24 113 41 115 39 9 -9 -18 -513 -33 -601 -39 -241
-126 -376 -317 -494 -151 -92 -296 -137 -623 -191 -104 -17 -191 -32 -193 -34
-2 -1 14 -68 35 -149 l38 -146 85 6 c486 33 921 200 1153 443 161 169 228 352
278 761 9 67 13 530 16 1578 l4 1482 -236 0 -235 0 0 -1145 0 -1145 -42 -27
c-209 -133 -422 -208 -619 -220 -372 -21 -652 153 -729 452 -19 76 -20 111
-20 1117 0 571 -3 1038 -7 1037 -5 0 -107 -35 -228 -77z"/>
<path d="M19060 4679 c-308 -35 -566 -174 -766 -411 -208 -249 -319 -531 -343
-878 -11 -156 1 -380 30 -527 93 -485 380 -872 759 -1024 337 -135 796 -110
1093 58 252 142 463 404 575 713 113 313 140 705 71 1028 -28 127 -52 200
-108 317 -246 519 -735 789 -1311 724z m358 -344 c286 -84 484 -348 560 -749
24 -132 24 -564 -1 -726 -47 -301 -123 -477 -266 -621 -128 -128 -287 -189
-493 -189 -170 0 -300 49 -415 154 -198 181 -314 484 -343 897 -28 394 36 740
175 949 165 248 495 368 783 285z"/>
<path d="M22033 4674 c-372 -45 -630 -142 -970 -367 l-123 -81 0 -1208 0
-1208 235 0 235 0 0 1175 0 1174 46 31 c67 47 238 125 324 149 257 72 520 43
693 -75 87 -60 138 -119 188 -219 71 -143 69 -116 69 -1236 l0 -999 235 0 235
0 0 1120 c0 788 -3 1135 -11 1172 -53 251 -285 462 -594 543 -169 44 -360 54
-562 29z"/>
<path d="M4538 4229 c-4 -363 -5 -388 -27 -464 -88 -311 -307 -542 -609 -643
l-77 -26 -835 -6 c-597 -5 -848 -10 -880 -19 -271 -72 -475 -270 -540 -527
-19 -73 -20 -114 -20 -838 0 -837 -1 -815 61 -942 107 -216 348 -375 722 -474
422 -111 794 -113 1229 -4 172 43 258 74 378 135 177 91 292 198 359 334 55
111 61 159 61 497 l0 308 -702 2 -703 3 0 90 0 90 1110 1 c1017 0 1115 2 1175
17 120 33 212 93 293 192 106 131 243 469 301 740 70 337 53 702 -54 1152 -71
297 -163 482 -305 611 -61 56 -169 113 -250 132 -30 7 -179 14 -367 17 l-317
5 -3 -383z m-685 -3047 c97 -43 163 -157 154 -264 -20 -224 -294 -327 -443
-166 -60 65 -78 107 -78 183 -1 202 186 327 367 247z"/>
</g>
</svg>
